SourceSans_Black.ufo
<glyph name="W" format="2">
	<unicode hex="0057"/>
	<advance width="824"/>
	<outline>
		<contour>
			<point x="122" y="0" type="line"/>
			<point x="336" y="0" type="line"/>
			<point x="384" y="258" type="line"/>
			<point x="394" y="308"/>
			<point x="401" y="362"/>
			<point x="408" y="410" type="curve"/>
			<point x="412" y="410" type="line"/>
			<point x="418" y="362"/>
			<point x="426" y="308"/>
			<point x="436" y="258" type="curve"/>
			<point x="486" y="0" type="line"/>
			<point x="704" y="0" type="line"/>
			<point x="814" y="650" type="line"/>
			<point x="650" y="650" type="line"/>
			<point x="612" y="366" type="line"/>
			<point x="605" y="300"/>
			<point x="597" y="231"/>
			<point x="590" y="162" type="curve"/>
			<point x="586" y="162" type="line"/>
			<point x="574" y="231"/>
			<point x="562" y="301"/>
			<point x="550" y="366" type="curve"/>
			<point x="490" y="650" type="line"/>
			<point x="346" y="650" type="line"/>
			<point x="282" y="366" type="line"/>
			<point x="270" y="299"/>
			<point x="258" y="230"/>
			<point x="246" y="162" type="curve"/>
			<point x="242" y="162" type="line"/>
			<point x="235" y="230"/>
			<point x="227" y="298"/>
			<point x="220" y="366" type="curve"/>
			<point x="186" y="650" type="line"/>
			<point x="10" y="650" type="line"/>
		</contour>
	</outline>
	<anchor name="aboverightUC" x="740" y="672"/>
	<anchor name="aboveUC" x="410" y="672"/>
	<anchor name="belowLC" x="410" y="-22"/>
</glyph>
<glyph name="IJ" format="2">
	<unicode hex="0132"/>
	<advance width="632"/>
	<outline>
		<contour>
			<point x="72" y="0" type="line"/>
			<point x="244" y="0" type="line"/>
			<point x="244" y="650" type="line"/>
			<point x="72" y="650" type="line"/>
		</contour>
		<contour>
			<point x="366" y="-188" type="curve" smooth="yes"/>
			<point x="516" y="-188"/>
			<point x="560" y="-86"/>
			<point x="560" y="26" type="curve" smooth="yes"/>
			<point x="560" y="650" type="line"/>
			<point x="388" y="650" type="line"/>
			<point x="388" y="20" type="line" smooth="yes"/>
			<point x="388" y="-34"/>
			<point x="374" y="-54"/>
			<point x="338" y="-54" type="curve" smooth="yes"/>
			<point x="326" y="-54"/>
			<point x="316" y="-52"/>
			<point x="302" y="-48" type="curve"/>
			<point x="272" y="-174" type="line"/>
			<point x="294" y="-182"/>
			<point x="320" y="-188"/>
		</contour>
	</outline>
</glyph>
<glyph name="lslash" format="2">
	<unicode hex="0142"/>
	<advance width="382"/>
	<outline>
		<contour>
			<point x="40" y="254" type="line"/>
			<point x="106" y="282" type="line"/>
			<point x="252" y="350" type="line"/>
			<point x="398" y="412" type="line"/>
			<point x="342" y="518" type="line"/>
			<point x="252" y="480" type="line"/>
			<point x="106" y="412" type="line"/>
			<point x="-16" y="360" type="line"/>
		</contour>
		<component base="l" xOffset="40"/>
	</outline>
	<anchor name="aboveUC" x="190" y="722"/>
	<anchor name="belowLC" x="210" y="-22"/>
</glyph>
<glyph name="Eng" format="2">
	<unicode hex="014A"/>
	<advance width="678"/>
	<outline>
		<contour>
			<point x="414" y="-12" type="curve" smooth="yes"/>
			<point x="569" y="-12"/>
			<point x="634" y="105"/>
			<point x="634" y="330" type="curve" smooth="yes"/>
			<point x="634" y="572"/>
			<point x="538" y="662"/>
			<point x="411" y="662" type="curve" smooth="yes"/>
			<point x="346" y="662"/>
			<point x="288" y="638"/>
			<point x="238" y="584" type="curve"/>
			<point x="238" y="650" type="line"/>
			<point x="72" y="650" type="line"/>
			<point x="72" y="0" type="line"/>
			<point x="244" y="0" type="line"/>
			<point x="244" y="438" type="line"/>
			<point x="274" y="491"/>
			<point x="322" y="514"/>
			<point x="358" y="514" type="curve" smooth="yes"/>
			<point x="422" y="514"/>
			<point x="458" y="461"/>
			<point x="458" y="330" type="curve" smooth="yes"/>
			<point x="458" y="176"/>
			<point x="429" y="148"/>
			<point x="394" y="148" type="curve" smooth="yes"/>
			<point x="378" y="148"/>
			<point x="366" y="150"/>
			<point x="356" y="154" type="curve"/>
			<point x="320" y="8" type="line"/>
			<point x="340" y="-4"/>
			<point x="384" y="-12"/>
		</contour>
	</outline>
	<anchor name="aboveUC" x="370" y="672"/>
	<anchor name="belowLC" x="330" y="-22"/>
</glyph>
<glyph name="gstroke" format="2">
	<unicode hex="01E5"/>
	<advance width="610"/>
	<outline>
		<contour>
			<point x="274" y="212" type="line"/>
			<point x="588" y="212" type="line"/>
			<point x="588" y="324" type="line"/>
			<point x="350" y="324" type="line"/>
			<point x="274" y="318" type="line"/>
		</contour>
		<component base="gscript"/>
	</outline>
	<anchor name="aboveLC" x="290" y="522"/>
	<anchor name="belowLC" x="300" y="-182"/>
</glyph>
<glyph name="Yogh" format="2">
	<unicode hex="021C"/>
	<advance width="520"/>
	<outline>
		<contour>
			<point x="102" y="-188" type="line"/>
			<point x="366" y="-92"/>
			<point x="486" y="-2"/>
			<point x="486" y="170" type="curve" smooth="yes"/>
			<point x="486" y="262"/>
			<point x="424" y="314"/>
			<point x="344" y="324" type="curve"/>
			<point x="422" y="376"/>
			<point x="450" y="436"/>
			<point x="450" y="514" type="curve" smooth="yes"/>
			<point x="450" y="598"/>
			<point x="376" y="662"/>
			<point x="260" y="662" type="curve" smooth="yes"/>
			<point x="168" y="662"/>
			<point x="98" y="636"/>
			<point x="12" y="558" type="curve"/>
			<point x="92" y="456" type="line"/>
			<point x="144" y="498"/>
			<point x="178" y="514"/>
			<point x="224" y="514" type="curve" smooth="yes"/>
			<point x="255" y="514"/>
			<point x="280" y="492"/>
			<point x="280" y="458" type="curve" smooth="yes"/>
			<point x="280" y="406"/>
			<point x="256" y="368"/>
			<point x="92" y="278" type="curve"/>
			<point x="148" y="178" type="line"/>
			<point x="202" y="204"/>
			<point x="222" y="210"/>
			<point x="258" y="210" type="curve" smooth="yes"/>
			<point x="290" y="210"/>
			<point x="316" y="186"/>
			<point x="316" y="142" type="curve" smooth="yes"/>
			<point x="316" y="80"/>
			<point x="244" y="16"/>
			<point x="38" y="-66" type="curve"/>
		</contour>
	</outline>
	<anchor name="aboveUC" x="260" y="672"/>
	<anchor name="belowLC" x="290" y="-182"/>
</glyph>
<glyph name="dotlessj" format="2">
	<unicode hex="0237"/>
	<advance width="290"/>
	<outline>
		<contour>
			<point x="38" y="-188" type="curve" smooth="yes"/>
			<point x="188" y="-188"/>
			<point x="232" y="-86"/>
			<point x="232" y="26" type="curve" smooth="yes"/>
			<point x="232" y="500" type="line"/>
			<point x="60" y="500" type="line"/>
			<point x="60" y="20" type="line" smooth="yes"/>
			<point x="60" y="-34"/>
			<point x="46" y="-54"/>
			<point x="10" y="-54" type="curve" smooth="yes"/>
			<point x="-2" y="-54"/>
			<point x="-12" y="-52"/>
			<point x="-26" y="-48" type="curve"/>
			<point x="-56" y="-174" type="line"/>
			<point x="-34" y="-182"/>
			<point x="-8" y="-188"/>
		</contour>
	</outline>
	<anchor name="aboveLC" x="146" y="522"/>
	<anchor name="belowLC" x="90" y="-182"/>
</glyph>
<glyph name="alphalatin" format="2">
	<unicode hex="0251"/>
	<advance width="580"/>
	<outline>
		<contour>
			<point x="240" y="-12" type="curve" smooth="yes"/>
			<point x="292" y="-12"/>
			<point x="340" y="18"/>
			<point x="372" y="52" type="curve"/>
			<point x="376" y="52" type="line"/>
			<point x="398" y="12"/>
			<point x="438" y="-12"/>
			<point x="504" y="-12" type="curve" smooth="yes"/>
			<point x="536" y="-12"/>
			<point x="560" y="-4"/>
			<point x="578" y="2" type="curve"/>
			<point x="558" y="128" type="line"/>
			<point x="552" y="126"/>
			<point x="550" y="126"/>
			<point x="546" y="126" type="curve" smooth="yes"/>
			<point x="532" y="126"/>
			<point x="522" y="136"/>
			<point x="522" y="170" type="curve" smooth="yes"/>
			<point x="522" y="500" type="line"/>
			<point x="388" y="500" type="line"/>
			<point x="374" y="450" type="line"/>
			<point x="370" y="450" type="line"/>
			<point x="332" y="494"/>
			<point x="292" y="512"/>
			<point x="244" y="512" type="curve" smooth="yes"/>
			<point x="138" y="512"/>
			<point x="36" y="414"/>
			<point x="36" y="250" type="curve" smooth="yes"/>
			<point x="36" y="88"/>
			<point x="116" y="-12"/>
		</contour>
		<contour>
			<point x="286" y="128" type="curve" smooth="yes"/>
			<point x="240" y="128"/>
			<point x="212" y="162"/>
			<point x="212" y="252" type="curve" smooth="yes"/>
			<point x="212" y="340"/>
			<point x="246" y="372"/>
			<point x="282" y="372" type="curve" smooth="yes"/>
			<point x="304" y="372"/>
			<point x="330" y="366"/>
			<point x="350" y="348" type="curve"/>
			<point x="350" y="164" type="line"/>
			<point x="332" y="136"/>
			<point x="312" y="128"/>
		</contour>
	</outline>
	<anchor name="aboveLC" x="290" y="522"/>
	<anchor name="belowLC" x="300" y="-22"/>
</glyph>
<glyph name="obar" format="2">
	<unicode hex="0275"/>
	<advance width="560"/>
	<outline>
		<contour>
			<point x="280" y="-12" type="curve" smooth="yes"/>
			<point x="410" y="-12"/>
			<point x="528" y="78"/>
			<point x="528" y="250" type="curve" smooth="yes"/>
			<point x="528" y="422"/>
			<point x="410" y="512"/>
			<point x="280" y="512" type="curve" smooth="yes"/>
			<point x="150" y="512"/>
			<point x="32" y="422"/>
			<point x="32" y="250" type="curve" smooth="yes"/>
			<point x="32" y="78"/>
			<point x="150" y="-12"/>
		</contour>
		<contour>
			<point x="280" y="116" type="curve" smooth="yes"/>
			<point x="221" y="116"/>
			<point x="192" y="162"/>
			<point x="192" y="250" type="curve" smooth="yes"/>
			<point x="192" y="338"/>
			<point x="221" y="385"/>
			<point x="280" y="385" type="curve" smooth="yes"/>
			<point x="339" y="385"/>
			<point x="368" y="338"/>
			<point x="368" y="250" type="curve" smooth="yes"/>
			<point x="368" y="162"/>
			<point x="339" y="116"/>
		</contour>
		<contour>
			<point x="162" y="198" type="line"/>
			<point x="394" y="198" type="line"/>
			<point x="394" y="310" type="line"/>
			<point x="162" y="310" type="line"/>
		</contour>
	</outline>
	<anchor name="aboveLC" x="280" y="522"/>
	<anchor name="belowLC" x="280" y="-22"/>
	<anchor name="ogonekLC" x="280" y="0"/>
</glyph>
<glyph name="tretroflex" format="2">
	<unicode hex="0288"/>
	<advance width="400"/>
	<outline>
		<contour>
			<point x="264" y="-188" type="curve" smooth="yes"/>
			<point x="319" y="-188"/>
			<point x="356" y="-178"/>
			<point x="382" y="-170" type="curve"/>
			<point x="356" y="-46" type="line"/>
			<point x="344" y="-50"/>
			<point x="328" y="-54"/>
			<point x="312" y="-54" type="curve" smooth="yes"/>
			<point x="280" y="-54"/>
			<point x="252" y="-36"/>
			<point x="252" y="19" type="curve" smooth="yes"/>
			<point x="252" y="366" type="line"/>
			<point x="366" y="366" type="line"/>
			<point x="366" y="500" type="line"/>
			<point x="252" y="500" type="line"/>
			<point x="252" y="650" type="line"/>
			<point x="110" y="650" type="line"/>
			<point x="90" y="500" type="line"/>
			<point x="14" y="494" type="line"/>
			<point x="14" y="366" type="line"/>
			<point x="80" y="366" type="line"/>
			<point x="80" y="16" type="line" smooth="yes"/>
			<point x="80" y="-106"/>
			<point x="134" y="-188"/>
		</contour>
	</outline>
	<anchor name="aboveLC" x="180" y="662"/>
	<anchor name="belowLC" x="240" y="-182"/>
</glyph>
<glyph name="gsmallhook" format="2">
	<unicode hex="029B"/>
	<advance width="524"/>
	<outline>
		<contour>
			<point x="291" y="-12" type="curve" smooth="yes"/>
			<point x="370" y="-12"/>
			<point x="443" y="16"/>
			<point x="486" y="55" type="curve"/>
			<point x="486" y="310" type="line"/>
			<point x="266" y="310" type="line"/>
			<point x="266" y="198" type="line"/>
			<point x="340" y="198" type="line"/>
			<point x="340" y="126" type="line"/>
			<point x="330" y="120"/>
			<point x="318" y="118"/>
			<point x="304" y="118" type="curve" smooth="yes"/>
			<point x="246" y="118"/>
			<point x="206" y="164"/>
			<point x="206" y="248" type="curve" smooth="yes"/>
			<point x="206" y="344"/>
			<point x="258" y="382"/>
			<point x="305" y="382" type="curve" smooth="yes"/>
			<point x="348" y="382"/>
			<point x="365" y="369"/>
			<point x="396" y="350" type="curve"/>
			<point x="472" y="452" type="line"/>
			<point x="450" y="466"/>
			<point x="432" y="490"/>
			<point x="432" y="522" type="curve" smooth="yes"/>
			<point x="432" y="562"/>
			<point x="450" y="578"/>
			<point x="476" y="578" type="curve" smooth="yes"/>
			<point x="492" y="578"/>
			<point x="498" y="576"/>
			<point x="508" y="572" type="curve"/>
			<point x="538" y="692" type="line"/>
			<point x="518" y="700"/>
			<point x="490" y="708"/>
			<point x="444" y="708" type="curve" smooth="yes"/>
			<point x="350" y="708"/>
			<point x="298" y="652"/>
			<point x="298" y="586" type="curve" smooth="yes"/>
			<point x="298" y="552"/>
			<point x="306" y="520"/>
			<point x="318" y="494" type="curve"/>
			<point x="348" y="508" type="line"/>
			<point x="334" y="510"/>
			<point x="310" y="512"/>
			<point x="293" y="512" type="curve" smooth="yes"/>
			<point x="164" y="512"/>
			<point x="32" y="418"/>
			<point x="32" y="248" type="curve" smooth="yes"/>
			<point x="32" y="67"/>
			<point x="160" y="-12"/>
		</contour>
	</outline>
	<anchor name="aboveLC" x="300" y="722"/>
	<anchor name="belowLC" x="280" y="-22"/>
</glyph>
<glyph name="glottalstopstrokereversed" format="2">
	<unicode hex="02A2"/>
	<advance width="470"/>
	<outline>
		<contour>
			<point x="60" y="108" type="line"/>
			<point x="440" y="108" type="line"/>
			<point x="440" y="220" type="line"/>
			<point x="166" y="220" type="line"/>
			<point x="60" y="214" type="line"/>
		</contour>
		<component base="glottalstopreversed"/>
	</outline>
	<anchor name="aboveUC" x="230" y="722"/>
	<anchor name="belowLC" x="250" y="-22"/>
</glyph>
<glyph name="tccurl" format="2">
	<unicode hex="02A8"/>
	<advance width="816"/>
	<outline>
		<contour>
			<point x="264" y="-12" type="curve" smooth="yes"/>
			<point x="304" y="-12"/>
			<point x="332" y="-4"/>
			<point x="352" y="2" type="curve"/>
			<point x="326" y="126" type="line"/>
			<point x="318" y="124"/>
			<point x="310" y="122"/>
			<point x="302" y="122" type="curve" smooth="yes"/>
			<point x="275" y="122"/>
			<point x="252" y="140"/>
			<point x="252" y="195" type="curve" smooth="yes"/>
			<point x="252" y="366" type="line"/>
			<point x="566" y="366" type="line"/>
			<point x="566" y="500" type="line"/>
			<point x="252" y="500" type="line"/>
			<point x="252" y="650" type="line"/>
			<point x="110" y="650" type="line"/>
			<point x="90" y="500" type="line"/>
			<point x="14" y="494" type="line"/>
			<point x="14" y="366" type="line"/>
			<point x="80" y="366" type="line"/>
			<point x="80" y="192" type="line" smooth="yes"/>
			<point x="80" y="70"/>
			<point x="134" y="-12"/>
		</contour>
		<component base="ccurl" xOffset="334"/>
	</outline>
	<anchor name="aboveUC" x="350" y="722"/>
	<anchor name="belowLC" x="380" y="-22"/>
</glyph>
<glyph name="colontriangularhalfmod" format="2">
	<unicode hex="02D1"/>
	<advance width="320"/>
	<outline>
		<contour>
			<point x="152" y="290" type="line"/>
			<point x="168" y="290" type="line"/>
			<point x="280" y="500" type="line"/>
			<point x="40" y="500" type="line"/>
		</contour>
	</outline>
</glyph>
<glyph name="ringcmb" format="2">
	<unicode hex="030A"/>
	<outline>
		<contour>
			<point x="0" y="568" type="curve" smooth="yes"/>
			<point x="94" y="568"/>
			<point x="140" y="616"/>
			<point x="140" y="674" type="curve" smooth="yes"/>
			<point x="140" y="732"/>
			<point x="94" y="780"/>
			<point x="0" y="780" type="curve" smooth="yes"/>
			<point x="-94" y="780"/>
			<point x="-140" y="732"/>
			<point x="-140" y="674" type="curve" smooth="yes"/>
			<point x="-140" y="616"/>
			<point x="-94" y="568"/>
		</contour>
		<contour>
			<point x="0" y="630" type="curve" smooth="yes"/>
			<point x="-21" y="630"/>
			<point x="-38" y="648"/>
			<point x="-38" y="674" type="curve" smooth="yes"/>
			<point x="-38" y="700"/>
			<point x="-21" y="718"/>
			<point x="0" y="718" type="curve" smooth="yes"/>
			<point x="21" y="718"/>
			<point x="38" y="700"/>
			<point x="38" y="674" type="curve" smooth="yes"/>
			<point x="38" y="648"/>
			<point x="21" y="630"/>
		</contour>
	</outline>
	<anchor name="_aboveLC" x="0" y="522"/>
	<anchor name="aboveLC" x="0" y="762"/>
</glyph>
<glyph name="candrabinducmb" format="2">
	<unicode hex="0310"/>
	<outline>
		<contour>
			<point x="0" y="572" type="curve" smooth="yes"/>
			<point x="122" y="572"/>
			<point x="184" y="638"/>
			<point x="188" y="732" type="curve"/>
			<point x="102" y="748" type="line"/>
			<point x="95" y="702"/>
			<point x="57" y="668"/>
			<point x="0" y="668" type="curve" smooth="yes"/>
			<point x="-58" y="668"/>
			<point x="-95" y="702"/>
			<point x="-102" y="748" type="curve"/>
			<point x="-188" y="732" type="line"/>
			<point x="-184" y="638"/>
			<point x="-122" y="572"/>
		</contour>
		<contour>
			<point x="0" y="722" type="curve" smooth="yes"/>
			<point x="46" y="722"/>
			<point x="82" y="756"/>
			<point x="82" y="798" type="curve" smooth="yes"/>
			<point x="82" y="841"/>
			<point x="46" y="874"/>
			<point x="0" y="874" type="curve" smooth="yes"/>
			<point x="-46" y="874"/>
			<point x="-82" y="841"/>
			<point x="-82" y="798" type="curve" smooth="yes"/>
			<point x="-82" y="756"/>
			<point x="-46" y="722"/>
		</contour>
	</outline>
	<anchor name="_aboveLC" x="0" y="522"/>
</glyph>
<glyph name="horncmb" format="2">
	<unicode hex="031B"/>
	<outline>
		<contour>
			<point x="2" y="424" type="line"/>
			<point x="104" y="430"/>
			<point x="192" y="471"/>
			<point x="192" y="572" type="curve" smooth="yes"/>
			<point x="192" y="612"/>
			<point x="176" y="652"/>
			<point x="160" y="672" type="curve"/>
			<point x="34" y="618" type="line"/>
			<point x="41" y="605"/>
			<point x="50" y="584"/>
			<point x="50" y="560" type="curve" smooth="yes"/>
			<point x="50" y="512"/>
			<point x="24" y="498"/>
			<point x="-10" y="490" type="curve"/>
		</contour>
	</outline>
	<anchor name="_hornLC" x="0" y="500"/>
</glyph>
<glyph name="slashshortcmb" format="2">
	<unicode hex="0337"/>
	<outline>
		<contour>
			<point x="-452" y="-26" type="line"/>
			<point x="-46" y="480" type="line"/>
			<point x="-108" y="528" type="line"/>
			<point x="-514" y="22" type="line"/>
		</contour>
	</outline>
</glyph>
<glyph name="beta" format="2">
	<unicode hex="03B2"/>
	<advance width="614"/>
	<outline>
		<contour>
			<point x="58" y="-176" type="line"/>
			<point x="232" y="-176" type="line"/>
			<point x="228" y="-102"/>
			<point x="224" y="-26"/>
			<point x="220" y="52" type="curve"/>
			<point x="270" y="0"/>
			<point x="328" y="-12"/>
			<point x="380" y="-12" type="curve" smooth="yes"/>
			<point x="475" y="-12"/>
			<point x="582" y="51"/>
			<point x="582" y="202" type="curve" smooth="yes"/>
			<point x="582" y="292"/>
			<point x="522" y="360"/>
			<point x="454" y="376" type="curve"/>
			<point x="454" y="380" type="line"/>
			<point x="504" y="412"/>
			<point x="532" y="458"/>
			<point x="532" y="523" type="curve" smooth="yes"/>
			<point x="532" y="651"/>
			<point x="418" y="708"/>
			<point x="302" y="708" type="curve" smooth="yes"/>
			<point x="134" y="708"/>
			<point x="58" y="598"/>
			<point x="58" y="456" type="curve" smooth="yes"/>
		</contour>
		<contour>
			<point x="328" y="128" type="curve" smooth="yes"/>
			<point x="294" y="128"/>
			<point x="253" y="137"/>
			<point x="218" y="183" type="curve"/>
			<point x="218" y="272"/>
			<point x="220" y="359"/>
			<point x="224" y="448" type="curve" smooth="yes"/>
			<point x="227" y="522"/>
			<point x="250" y="574"/>
			<point x="302" y="574" type="curve" smooth="yes"/>
			<point x="336" y="574"/>
			<point x="368" y="552"/>
			<point x="368" y="506" type="curve" smooth="yes"/>
			<point x="368" y="454"/>
			<point x="348" y="418"/>
			<point x="282" y="410" type="curve"/>
			<point x="302" y="286" type="line"/>
			<point x="312" y="290"/>
			<point x="324" y="292"/>
			<point x="338" y="292" type="curve" smooth="yes"/>
			<point x="388" y="292"/>
			<point x="414" y="256"/>
			<point x="414" y="214" type="curve" smooth="yes"/>
			<point x="414" y="153"/>
			<point x="374" y="128"/>
		</contour>
	</outline>
	<anchor name="aboveUC" x="310" y="722"/>
	<anchor name="belowLC" x="150" y="-182"/>
</glyph>
<glyph name="tau" format="2">
	<unicode hex="03C4"/>
	<advance width="500"/>
	<outline>
		<contour>
			<point x="318" y="-12" type="curve" smooth="yes"/>
			<point x="366" y="-12"/>
			<point x="408" y="-4"/>
			<point x="444" y="6" type="curve"/>
			<point x="422" y="134" type="line"/>
			<point x="398" y="128"/>
			<point x="382" y="126"/>
			<point x="364" y="126" type="curve" smooth="yes"/>
			<point x="342" y="126"/>
			<point x="326" y="136"/>
			<point x="326" y="170" type="curve" smooth="yes"/>
			<point x="326" y="214"/>
			<point x="328" y="290"/>
			<point x="332" y="366" type="curve"/>
			<point x="476" y="366" type="line"/>
			<point x="476" y="500" type="line"/>
			<point x="100" y="500" type="line"/>
			<point x="24" y="494" type="line"/>
			<point x="24" y="366" type="line"/>
			<point x="164" y="366" type="line"/>
			<point x="164" y="176" type="line" smooth="yes"/>
			<point x="164" y="64"/>
			<point x="202" y="-12"/>
		</contour>
	</outline>
	<anchor name="aboveLC" x="270" y="522"/>
	<anchor name="belowLC" x="290" y="-22"/>
</glyph>
<glyph name="koppa" format="2">
	<unicode hex="03D9"/>
	<advance width="560"/>
	<outline>
		<contour>
			<point x="280" y="-12" type="curve" smooth="yes"/>
			<point x="408" y="-12"/>
			<point x="528" y="84"/>
			<point x="528" y="250" type="curve" smooth="yes"/>
			<point x="528" y="416"/>
			<point x="408" y="512"/>
			<point x="280" y="512" type="curve" smooth="yes"/>
			<point x="152" y="512"/>
			<point x="32" y="416"/>
			<point x="32" y="250" type="curve" smooth="yes"/>
			<point x="32" y="84"/>
			<point x="152" y="-12"/>
		</contour>
		<contour>
			<point x="280" y="118" type="curve" smooth="yes"/>
			<point x="228" y="118"/>
			<point x="208" y="168"/>
			<point x="208" y="250" type="curve" smooth="yes"/>
			<point x="208" y="326"/>
			<point x="228" y="374"/>
			<point x="280" y="374" type="curve" smooth="yes"/>
			<point x="332" y="374"/>
			<point x="352" y="326"/>
			<point x="352" y="250" type="curve" smooth="yes"/>
			<point x="352" y="168"/>
			<point x="332" y="118"/>
		</contour>
		<contour>
			<point x="200" y="-176" type="line"/>
			<point x="374" y="-176" type="line"/>
			<point x="370" y="-105"/>
			<point x="366" y="-27"/>
			<point x="362" y="48" type="curve"/>
			<point x="200" y="54" type="line"/>
		</contour>
	</outline>
	<anchor name="aboveLC" x="280" y="522"/>
	<anchor name="belowLC" x="280" y="-182"/>
</glyph>
<glyph name="Yu" format="2">
	<unicode hex="042E"/>
	<advance width="966"/>
	<outline>
		<contour>
			<point x="72" y="0" type="line"/>
			<point x="244" y="0" type="line"/>
			<point x="244" y="258" type="line"/>
			<point x="438" y="258" type="line"/>
			<point x="438" y="408" type="line"/>
			<point x="244" y="408" type="line"/>
			<point x="244" y="650" type="line"/>
			<point x="72" y="650" type="line"/>
		</contour>
		<contour>
			<point x="628" y="-12" type="curve" smooth="yes"/>
			<point x="808" y="-12"/>
			<point x="922" y="114"/>
			<point x="922" y="328" type="curve" smooth="yes"/>
			<point x="922" y="541"/>
			<point x="808" y="662"/>
			<point x="628" y="662" type="curve" smooth="yes"/>
			<point x="448" y="662"/>
			<point x="338" y="542"/>
			<point x="338" y="328" type="curve" smooth="yes"/>
			<point x="338" y="114"/>
			<point x="448" y="-12"/>
		</contour>
		<contour>
			<point x="628" y="136" type="curve" smooth="yes"/>
			<point x="550" y="136"/>
			<point x="510" y="210"/>
			<point x="510" y="328" type="curve" smooth="yes"/>
			<point x="510" y="446"/>
			<point x="550" y="514"/>
			<point x="628" y="514" type="curve" smooth="yes"/>
			<point x="706" y="514"/>
			<point x="746" y="446"/>
			<point x="746" y="328" type="curve" smooth="yes"/>
			<point x="746" y="210"/>
			<point x="706" y="136"/>
		</contour>
	</outline>
	<anchor name="aboveUC" x="492" y="672"/>
</glyph>
<glyph name="shcha" format="2">
	<unicode hex="0449"/>
	<advance width="856"/>
	<outline>
		<contour>
			<point x="684" y="-172" type="line"/>
			<point x="832" y="-172" type="line"/>
			<point x="848" y="20" type="line"/>
			<point x="848" y="134" type="line"/>
			<point x="656" y="134" type="line"/>
			<point x="656" y="0" type="line"/>
			<point x="684" y="0" type="line"/>
		</contour>
		<component base="sha"/>
	</outline>
</glyph>
<glyph name="Gheup" format="2">
	<unicode hex="0490"/>
	<advance width="530"/>
	<outline>
		<contour>
			<point x="72" y="0" type="line"/>
			<point x="244" y="0" type="line"/>
			<point x="244" y="506" type="line"/>
			<point x="496" y="506" type="line"/>
			<point x="506" y="822" type="line"/>
			<point x="359" y="822" type="line"/>
			<point x="337" y="650" type="line"/>
			<point x="72" y="650" type="line"/>
		</contour>
	</outline>
</glyph>
<glyph name="Zhedescender" format="2">
	<unicode hex="0496"/>
	<advance width="928"/>
	<outline>
		<contour>
			<point x="752" y="-188" type="line"/>
			<point x="906" y="-188" type="line"/>
			<point x="920" y="36" type="line"/>
			<point x="920" y="144" type="line"/>
			<point x="722" y="144" type="line"/>
			<point x="722" y="0" type="line"/>
			<point x="752" y="0" type="line"/>
		</contour>
		<component base="Zhe"/>
	</outline>
</glyph>
<glyph name="ustraightstroke" format="2">
	<unicode hex="04B1"/>
	<advance width="544"/>
	<outline>
		<contour>
			<point x="50" y="0" type="line"/>
			<point x="494" y="0" type="line"/>
			<point x="494" y="112" type="line"/>
			<point x="126" y="112" type="line"/>
			<point x="50" y="106" type="line"/>
		</contour>
		<component base="ustraight"/>
	</outline>
	<anchor name="aboveLC" x="274" y="522"/>
</glyph>
<glyph name="L.sups" format="2">
	<unicode hex="1D38"/>
	<advance width="359"/>
	<outline>
		<contour>
			<point x="47" y="368" type="line"/>
			<point x="332" y="368" type="line"/>
			<point x="332" y="467" type="line"/>
			<point x="167" y="467" type="line"/>
			<point x="167" y="800" type="line"/>
			<point x="47" y="800" type="line"/>
		</contour>
	</outline>
</glyph>
<glyph name="T.sups" format="2">
	<unicode hex="1D40"/>
	<advance width="383"/>
	<outline>
		<contour>
			<point x="133" y="368" type="line"/>
			<point x="253" y="368" type="line"/>
			<point x="253" y="701" type="line"/>
			<point x="368" y="701" type="line"/>
			<point x="368" y="800" type="line"/>
			<point x="16" y="800" type="line"/>
			<point x="16" y="701" type="line"/>
			<point x="133" y="701" type="line"/>
		</contour>
	</outline>
</glyph>
<glyph name="schwa.sups" format="2">
	<unicode hex="1D4A"/>
	<advance width="350"/>
	<outline>
		<contour>
			<point x="168" y="360" type="curve" smooth="yes"/>
			<point x="256" y="360"/>
			<point x="328" y="430"/>
			<point x="328" y="534" type="curve" smooth="yes"/>
			<point x="328" y="642"/>
			<point x="252" y="708"/>
			<point x="164" y="708" type="curve" smooth="yes"/>
			<point x="120" y="708"/>
			<point x="80" y="694"/>
			<point x="42" y="668" type="curve"/>
			<point x="80" y="600" type="line"/>
			<point x="104" y="614"/>
			<point x="126" y="618"/>
			<point x="152" y="618" type="curve" smooth="yes"/>
			<point x="190" y="618"/>
			<point x="218" y="594"/>
			<point x="218" y="534" type="curve" smooth="yes"/>
			<point x="218" y="470"/>
			<point x="198" y="450"/>
			<point x="168" y="450" type="curve" smooth="yes"/>
			<point x="134" y="450"/>
			<point x="118" y="468"/>
			<point x="118" y="518" type="curve"/>
			<point x="92" y="500" type="line"/>
			<point x="242" y="500" type="line"/>
			<point x="242" y="566" type="line"/>
			<point x="26" y="566" type="line"/>
			<point x="24" y="558"/>
			<point x="20" y="542"/>
			<point x="20" y="522" type="curve" smooth="yes"/>
			<point x="20" y="434"/>
			<point x="67" y="360"/>
		</contour>
	</outline>
</glyph>
<glyph name="nmiddletilde" format="2">
	<unicode hex="1D70"/>
	<advance width="754"/>
	<outline>
		<contour>
			<point x="640" y="124" type="curve" smooth="yes"/>
			<point x="714" y="124"/>
			<point x="762" y="164"/>
			<point x="766" y="262" type="curve"/>
			<point x="660" y="284" type="line"/>
			<point x="656" y="252"/>
			<point x="642" y="242"/>
			<point x="620" y="242" type="curve" smooth="yes"/>
			<point x="564" y="242"/>
			<point x="217" y="298"/>
			<point x="114" y="298" type="curve" smooth="yes"/>
			<point x="40" y="298"/>
			<point x="-8" y="258"/>
			<point x="-12" y="160" type="curve"/>
			<point x="94" y="138" type="line"/>
			<point x="98" y="170"/>
			<point x="112" y="180"/>
			<point x="134" y="180" type="curve" smooth="yes"/>
			<point x="190" y="180"/>
			<point x="539" y="124"/>
		</contour>
		<component base="n" xOffset="84"/>
	</outline>
	<anchor name="aboveLC" x="404" y="522"/>
	<anchor name="belowLC" x="374" y="-22"/>
</glyph>
<glyph name="ginsular" format="2">
	<unicode hex="1D79"/>
	<advance width="526"/>
	<outline>
		<contour>
			<point x="250" y="-196" type="curve" smooth="yes"/>
			<point x="408" y="-196"/>
			<point x="506" y="-122"/>
			<point x="506" y="-14" type="curve" smooth="yes"/>
			<point x="506" y="76"/>
			<point x="462" y="114"/>
			<point x="332" y="156" type="curve" smooth="yes"/>
			<point x="245" y="184"/>
			<point x="206" y="212"/>
			<point x="206" y="262" type="curve" smooth="yes"/>
			<point x="206" y="324"/>
			<point x="248" y="366"/>
			<point x="342" y="366" type="curve" smooth="yes"/>
			<point x="482" y="366" type="line"/>
			<point x="482" y="500" type="line"/>
			<point x="98" y="500" type="line"/>
			<point x="22" y="494" type="line"/>
			<point x="22" y="366" type="line"/>
			<point x="120" y="366" type="line"/>
			<point x="120" y="362" type="line"/>
			<point x="72" y="330"/>
			<point x="42" y="288"/>
			<point x="42" y="228" type="curve" smooth="yes"/>
			<point x="42" y="162"/>
			<point x="76" y="116"/>
			<point x="130" y="82" type="curve"/>
			<point x="130" y="78" type="line"/>
			<point x="62" y="50"/>
			<point x="30" y="4"/>
			<point x="30" y="-52" type="curve" smooth="yes"/>
			<point x="30" y="-157"/>
			<point x="131" y="-196"/>
		</contour>
		<contour>
			<point x="268" y="-80" type="curve" smooth="yes"/>
			<point x="206" y="-80"/>
			<point x="170" y="-58"/>
			<point x="170" y="-22" type="curve" smooth="yes"/>
			<point x="170" y="2"/>
			<point x="180" y="20"/>
			<point x="208" y="38" type="curve"/>
			<point x="274" y="6"/>
			<point x="346" y="12"/>
			<point x="346" y="-36" type="curve" smooth="yes"/>
			<point x="346" y="-60"/>
			<point x="318" y="-80"/>
		</contour>
	</outline>
	<anchor name="aboveLC" x="260" y="522"/>
	<anchor name="belowLC" x="250" y="-182"/>
</glyph>
<glyph name="quoteright" format="2">
	<unicode hex="2019"/>
	<advance width="320"/>
	<outline>
		<contour>
			<point x="110" y="322" type="line"/>
			<point x="216" y="372"/>
			<point x="266" y="450"/>
			<point x="266" y="550" type="curve" smooth="yes"/>
			<point x="266" y="642"/>
			<point x="230" y="696"/>
			<point x="160" y="696" type="curve" smooth="yes"/>
			<point x="110" y="696"/>
			<point x="74" y="660"/>
			<point x="74" y="604" type="curve" smooth="yes"/>
			<point x="74" y="554"/>
			<point x="112" y="522"/>
			<point x="160" y="522" type="curve" smooth="yes"/>
			<point x="182" y="522"/>
			<point x="204" y="533"/>
			<point x="220" y="545" type="curve"/>
			<point x="169" y="618" type="line"/>
			<point x="170" y="524" type="line"/>
			<point x="170" y="464"/>
			<point x="138" y="424"/>
			<point x="74" y="396" type="curve"/>
		</contour>
	</outline>
</glyph>
<glyph name="lira" format="2">
	<unicode hex="20A4"/>
	<advance width="540"/>
	<outline>
		<contour>
			<point x="46" y="0" type="line"/>
			<point x="514" y="0" type="line"/>
			<point x="514" y="144" type="line"/>
			<point x="264" y="144" type="line"/>
			<point x="264" y="148" type="line"/>
			<point x="292" y="182"/>
			<point x="302" y="209"/>
			<point x="302" y="248" type="curve" smooth="yes"/>
			<point x="302" y="310"/>
			<point x="274" y="367"/>
			<point x="274" y="422" type="curve" smooth="yes"/>
			<point x="274" y="480"/>
			<point x="306" y="508"/>
			<point x="354" y="508" type="curve" smooth="yes"/>
			<point x="382" y="508"/>
			<point x="404" y="498"/>
			<point x="426" y="472" type="curve"/>
			<point x="514" y="558" type="line"/>
			<point x="474" y="610"/>
			<point x="416" y="646"/>
			<point x="332" y="646" type="curve" smooth="yes"/>
			<point x="206" y="646"/>
			<point x="110" y="564"/>
			<point x="110" y="432" type="curve" smooth="yes"/>
			<point x="110" y="377"/>
			<point x="152" y="309"/>
			<point x="152" y="250" type="curve" smooth="yes"/>
			<point x="152" y="180"/>
			<point x="102" y="130"/>
			<point x="46" y="106" type="curve"/>
		</contour>
		<contour>
			<point x="52" y="212" type="line"/>
			<point x="424" y="212" type="line"/>
			<point x="424" y="296" type="line"/>
			<point x="128" y="296" type="line"/>
			<point x="52" y="290" type="line"/>
		</contour>
		<contour>
			<point x="52" y="340" type="line"/>
			<point x="424" y="340" type="line"/>
			<point x="424" y="424" type="line"/>
			<point x="108" y="424" type="line"/>
			<point x="52" y="418" type="line"/>
		</contour>
	</outline>
</glyph>
<glyph name="estimated" format="2">
	<unicode hex="212E"/>
	<advance width="800"/>
	<outline>
		<contour>
			<point x="401" y="-11" type="curve" smooth="yes"/>
			<point x="515" y="-11"/>
			<point x="617" y="41"/>
			<point x="682" y="120" type="curve"/>
			<point x="630" y="120" type="line"/>
			<point x="575" y="52"/>
			<point x="493" y="9"/>
			<point x="402" y="9" type="curve" smooth="yes"/>
			<point x="316" y="9"/>
			<point x="238" y="47"/>
			<point x="184" y="108" type="curve" smooth="yes"/>
			<point x="180" y="114"/>
			<point x="176" y="121"/>
			<point x="176" y="129" type="curve" smooth="yes"/>
			<point x="176" y="312" type="line" smooth="yes"/>
			<point x="176" y="315"/>
			<point x="178" y="316"/>
			<point x="180" y="316" type="curve" smooth="yes"/>
			<point x="755" y="316" type="line"/>
			<point x="755" y="319"/>
			<point x="755" y="322"/>
			<point x="755" y="325" type="curve" smooth="yes"/>
			<point x="755" y="511"/>
			<point x="597" y="661"/>
			<point x="401" y="661" type="curve" smooth="yes"/>
			<point x="205" y="661"/>
			<point x="46" y="511"/>
			<point x="46" y="325" type="curve" smooth="yes"/>
			<point x="46" y="139"/>
			<point x="205" y="-11"/>
		</contour>
		<contour>
			<point x="180" y="335" type="line" smooth="yes"/>
			<point x="178" y="335"/>
			<point x="176" y="337"/>
			<point x="176" y="340" type="curve" smooth="yes"/>
			<point x="176" y="520" type="line" smooth="yes"/>
			<point x="176" y="529"/>
			<point x="180" y="537"/>
			<point x="185" y="543" type="curve" smooth="yes"/>
			<point x="240" y="603"/>
			<point x="316" y="641"/>
			<point x="402" y="641" type="curve" smooth="yes"/>
			<point x="485" y="641"/>
			<point x="561" y="604"/>
			<point x="617" y="546" type="curve" smooth="yes"/>
			<point x="622" y="540"/>
			<point x="626" y="533"/>
			<point x="626" y="524" type="curve" smooth="yes"/>
			<point x="626" y="340" type="line"/>
			<point x="626" y="337"/>
			<point x="624" y="335"/>
			<point x="621" y="335" type="curve" smooth="yes"/>
		</contour>
	</outline>
</glyph>
<glyph name="arrowright" format="2">
	<unicode hex="2192"/>
	<advance width="616"/>
	<outline>
		<contour>
			<point x="316" y="-18" type="line"/>
			<point x="596" y="250" type="line"/>
			<point x="596" y="254" type="line"/>
			<point x="316" y="522" type="line"/>
			<point x="236" y="430" type="line"/>
			<point x="366" y="320" type="line"/>
			<point x="40" y="320" type="line"/>
			<point x="40" y="184" type="line"/>
			<point x="366" y="184" type="line"/>
			<point x="236" y="74" type="line"/>
		</contour>
	</outline>
</glyph>
<glyph name="bracketleftwhite" format="2">
	<unicode hex="27E6"/>
	<advance width="460"/>
	<outline>
		<contour>
			<point x="84" y="-152" type="line"/>
			<point x="408" y="-152" type="line"/>
			<point x="408" y="-62" type="line"/>
			<point x="322" y="-62" type="line"/>
			<point x="322" y="618" type="line"/>
			<point x="408" y="618" type="line"/>
			<point x="408" y="708" type="line"/>
			<point x="84" y="708" type="line"/>
		</contour>
		<contour>
			<point x="182" y="-62" type="line"/>
			<point x="182" y="618" type="line"/>
			<point x="234" y="618" type="line"/>
			<point x="234" y="-62" type="line"/>
		</contour>
	</outline>
</glyph>
<glyph name="tstroke" format="2">
	<unicode hex="2C66"/>
	<advance width="400"/>
	<outline>
		<contour>
			<point x="84" y="-46" type="line"/>
			<point x="448" y="550" type="line"/>
			<point x="408" y="570" type="line"/>
			<point x="44" y="-26" type="line"/>
		</contour>
		<component base="t"/>
	</outline>
	<anchor name="aboveLC" x="180" y="662"/>
	<anchor name="belowLC" x="240" y="-22"/>
</glyph>
<glyph name="twoemdash" format="2">
	<unicode hex="2E3A"/>
	<advance width="1500"/>
	<outline>
		<contour>
			<point x="44" y="200" type="line"/>
			<point x="1456" y="200" type="line"/>
			<point x="1456" y="308" type="line"/>
			<point x="44" y="308" type="line"/>
		</contour>
	</outline>
</glyph>
<glyph name="finsular" format="2">
	<unicode hex="A77C"/>
	<advance width="438"/>
	<outline>
		<contour>
			<point x="58" y="-176" type="line"/>
			<point x="230" y="-176" type="line"/>
			<point x="230" y="-4" type="line"/>
			<point x="396" y="-4" type="line"/>
			<point x="396" y="130" type="line"/>
			<point x="230" y="130" type="line"/>
			<point x="230" y="278" type="line"/>
			<point x="254" y="340"/>
			<point x="304" y="362"/>
			<point x="344" y="362" type="curve" smooth="yes"/>
			<point x="368" y="362"/>
			<point x="382" y="358"/>
			<point x="402" y="350" type="curve"/>
			<point x="438" y="498" type="line"/>
			<point x="422" y="504"/>
			<point x="398" y="512"/>
			<point x="366" y="512" type="curve" smooth="yes"/>
			<point x="314" y="512"/>
			<point x="252" y="482"/>
			<point x="214" y="414" type="curve"/>
			<point x="210" y="414" type="line"/>
			<point x="198" y="500" type="line"/>
			<point x="58" y="500" type="line"/>
		</contour>
	</outline>
	<anchor name="aboveLC" x="270" y="522"/>
	<anchor name="belowLC" x="150" y="-182"/>
</glyph>
<glyph name="sharealike" format="2">
	<unicode hex="1F10E"/>
	<advance width="752"/>
	<outline>
		<contour>
			<point x="376" y="-8" type="curve" smooth="yes"/>
			<point x="554" y="-8"/>
			<point x="708" y="118"/>
			<point x="708" y="326" type="curve" smooth="yes"/>
			<point x="708" y="534"/>
			<point x="554" y="656"/>
			<point x="376" y="656" type="curve" smooth="yes"/>
			<point x="198" y="656"/>
			<point x="44" y="533"/>
			<point x="44" y="326" type="curve" smooth="yes"/>
			<point x="44" y="118"/>
			<point x="198" y="-8"/>
		</contour>
		<contour>
			<point x="376" y="60" type="curve" smooth="yes"/>
			<point x="230" y="60"/>
			<point x="120" y="166"/>
			<point x="120" y="326" type="curve" smooth="yes"/>
			<point x="120" y="486"/>
			<point x="230" y="588"/>
			<point x="376" y="588" type="curve" smooth="yes"/>
			<point x="522" y="588"/>
			<point x="632" y="486"/>
			<point x="632" y="326" type="curve" smooth="yes"/>
			<point x="632" y="166"/>
			<point x="522" y="60"/>
		</contour>
		<contour>
			<point x="378" y="128" type="curve" smooth="yes"/>
			<point x="280" y="128"/>
			<point x="208" y="188"/>
			<point x="204" y="272" type="curve"/>
			<point x="314" y="272" type="line"/>
			<point x="316" y="242"/>
			<point x="341" y="220"/>
			<point x="378" y="220" type="curve" smooth="yes"/>
			<point x="420" y="220"/>
			<point x="450" y="266"/>
			<point x="450" y="324" type="curve" smooth="yes"/>
			<point x="450" y="380"/>
			<point x="420" y="426"/>
			<point x="378" y="426" type="curve" smooth="yes"/>
			<point x="342" y="426"/>
			<point x="316" y="401"/>
			<point x="316" y="374" type="curve"/>
			<point x="279" y="384" type="line"/>
			<point x="354" y="384" type="line"/>
			<point x="262" y="282" type="line"/>
			<point x="170" y="384" type="line"/>
			<point x="243" y="384" type="line"/>
			<point x="206" y="374" type="line"/>
			<point x="206" y="458"/>
			<point x="280" y="518"/>
			<point x="378" y="518" type="curve" smooth="yes"/>
			<point x="484" y="518"/>
			<point x="560" y="436"/>
			<point x="560" y="324" type="curve" smooth="yes"/>
			<point x="560" y="212"/>
			<point x="484" y="128"/>
		</contour>
	</outline>
</glyph>
<glyph name="Astroke.sc" format="2">
	<advance width="516"/>
	<outline>
		<contour>
			<point x="220" y="-66" type="line"/>
			<point x="356" y="588" type="line"/>
			<point x="310" y="598" type="line"/>
			<point x="174" y="-56" type="line"/>
		</contour>
		<component base="A.sc"/>
	</outline>
	<anchor name="aboveUC" x="260" y="562"/>
	<anchor name="belowLC" x="260" y="-22"/>
</glyph>
<glyph name="Dhook.sc" format="2">
	<advance width="764"/>
	<outline>
		<contour>
			<point x="256" y="0" type="line"/>
			<point x="442" y="0" type="line" smooth="yes"/>
			<point x="604" y="0"/>
			<point x="720" y="80"/>
			<point x="720" y="274" type="curve" smooth="yes"/>
			<point x="720" y="464"/>
			<point x="614" y="544"/>
			<point x="380" y="544" type="curve" smooth="yes"/>
			<point x="127" y="544"/>
			<point x="34" y="450"/>
			<point x="34" y="328" type="curve" smooth="yes"/>
			<point x="34" y="240"/>
			<point x="84" y="178"/>
			<point x="164" y="152" type="curve"/>
			<point x="234" y="266" type="line"/>
			<point x="198" y="280"/>
			<point x="180" y="296"/>
			<point x="180" y="332" type="curve" smooth="yes"/>
			<point x="180" y="374"/>
			<point x="218" y="402"/>
			<point x="320" y="402" type="curve" smooth="yes"/>
			<point x="400" y="402" type="line" smooth="yes"/>
			<point x="491" y="402"/>
			<point x="544" y="377"/>
			<point x="544" y="274" type="curve" smooth="yes"/>
			<point x="544" y="160"/>
			<point x="496" y="132"/>
			<point x="448" y="132" type="curve" smooth="yes"/>
			<point x="428" y="132" type="line"/>
			<point x="428" y="468" type="line"/>
			<point x="256" y="468" type="line"/>
		</contour>
	</outline>
	<anchor name="aboveUC" x="450" y="562"/>
	<anchor name="belowLC" x="470" y="-22"/>
</glyph>
<glyph name="Endescender.sc" format="2">
	<advance width="650"/>
	<outline>
		<contour>
			<point x="478" y="-172" type="line"/>
			<point x="626" y="-172" type="line"/>
			<point x="642" y="24" type="line"/>
			<point x="642" y="142" type="line"/>
			<point x="450" y="142" type="line"/>
			<point x="450" y="0" type="line"/>
			<point x="478" y="0" type="line"/>
		</contour>
		<component base="En.sc"/>
	</outline>
</glyph>
<glyph name="Eopen.sc" format="2">
	<advance width="506"/>
	<outline>
		<contour>
			<point x="264" y="-12" type="curve" smooth="yes"/>
			<point x="340" y="-12"/>
			<point x="406" y="10"/>
			<point x="470" y="62" type="curve"/>
			<point x="400" y="164" type="line"/>
			<point x="364" y="135"/>
			<point x="321" y="118"/>
			<point x="274" y="118" type="curve" smooth="yes"/>
			<point x="226" y="118"/>
			<point x="196" y="138"/>
			<point x="196" y="170" type="curve" smooth="yes"/>
			<point x="196" y="200"/>
			<point x="214" y="218"/>
			<point x="260" y="218" type="curve" smooth="yes"/>
			<point x="342" y="218" type="line"/>
			<point x="342" y="324" type="line"/>
			<point x="276" y="324" type="line" smooth="yes"/>
			<point x="238" y="324"/>
			<point x="220" y="340"/>
			<point x="220" y="368" type="curve" smooth="yes"/>
			<point x="220" y="396"/>
			<point x="246" y="414"/>
			<point x="282" y="414" type="curve" smooth="yes"/>
			<point x="311" y="414"/>
			<point x="349" y="408"/>
			<point x="386" y="376" type="curve"/>
			<point x="462" y="476" type="line"/>
			<point x="404" y="522"/>
			<point x="338" y="544"/>
			<point x="270" y="544" type="curve" smooth="yes"/>
			<point x="122" y="544"/>
			<point x="54" y="484"/>
			<point x="54" y="392" type="curve" smooth="yes"/>
			<point x="54" y="346"/>
			<point x="76" y="304"/>
			<point x="118" y="282" type="curve"/>
			<point x="118" y="278" type="line"/>
			<point x="68" y="262"/>
			<point x="30" y="216"/>
			<point x="30" y="160" type="curve" smooth="yes"/>
			<point x="30" y="46"/>
			<point x="130" y="-12"/>
		</contour>
	</outline>
	<anchor name="aboveUC" x="250" y="562"/>
	<anchor name="baseLC" x="250" y="0"/>
	<anchor name="belowLC" x="250" y="-22"/>
	<anchor name="ogonekUC" x="250" y="0"/>
</glyph>
<glyph name="Gheup.sc" format="2">
	<advance width="482"/>
	<outline>
		<contour>
			<point x="72" y="0" type="line"/>
			<point x="244" y="0" type="line"/>
			<point x="244" y="390" type="line"/>
			<point x="448" y="390" type="line"/>
			<point x="458" y="696" type="line"/>
			<point x="314" y="696" type="line"/>
			<point x="292" y="532" type="line"/>
			<point x="72" y="532" type="line"/>
		</contour>
	</outline>
</glyph>
<glyph name="Kahook.a" format="2">
	<advance width="642"/>
	<outline>
		<contour>
			<point x="342" y="-188" type="curve" smooth="yes"/>
			<point x="498" y="-188"/>
			<point x="606" y="-82"/>
			<point x="606" y="112" type="curve" smooth="yes"/>
			<point x="606" y="322"/>
			<point x="464" y="400"/>
			<point x="322" y="400" type="curve"/>
			<point x="438" y="344" type="line"/>
			<point x="600" y="650" type="line"/>
			<point x="412" y="650" type="line"/>
			<point x="304" y="402" type="line"/>
			<point x="244" y="402" type="line"/>
			<point x="244" y="650" type="line"/>
			<point x="72" y="650" type="line"/>
			<point x="72" y="0" type="line"/>
			<point x="244" y="0" type="line"/>
			<point x="244" y="264" type="line"/>
			<point x="296" y="264" type="line" smooth="yes"/>
			<point x="389" y="264"/>
			<point x="438" y="212"/>
			<point x="438" y="110" type="curve" smooth="yes"/>
			<point x="438" y="-4"/>
			<point x="370" y="-54"/>
			<point x="314" y="-54" type="curve" smooth="yes"/>
			<point x="302" y="-54"/>
			<point x="292" y="-52"/>
			<point x="278" y="-48" type="curve"/>
			<point x="248" y="-174" type="line"/>
			<point x="270" y="-182"/>
			<point x="296" y="-188"/>
		</contour>
	</outline>
</glyph>
<glyph name="P.sc" format="2">
	<advance width="564"/>
	<outline>
		<contour>
			<point x="72" y="0" type="line"/>
			<point x="244" y="0" type="line"/>
			<point x="244" y="156" type="line"/>
			<point x="301" y="156" type="line" smooth="yes"/>
			<point x="417" y="156"/>
			<point x="530" y="211"/>
			<point x="530" y="348" type="curve" smooth="yes"/>
			<point x="530" y="489"/>
			<point x="421" y="532"/>
			<point x="301" y="532" type="curve" smooth="yes"/>
			<point x="72" y="532" type="line"/>
		</contour>
		<contour>
			<point x="244" y="272" type="line"/>
			<point x="244" y="398" type="line"/>
			<point x="296" y="398" type="line" smooth="yes"/>
			<point x="344" y="398"/>
			<point x="368" y="378"/>
			<point x="368" y="338" type="curve" smooth="yes"/>
			<point x="368" y="300"/>
			<point x="342" y="272"/>
			<point x="296" y="272" type="curve" smooth="yes"/>
		</contour>
	</outline>
	<anchor name="aboverightUC" x="470" y="562"/>
	<anchor name="aboveUC" x="306" y="562"/>
	<anchor name="belowLC" x="170" y="-22"/>
</glyph>
<glyph name="Phi.sc" format="2">
	<advance width="720"/>
	<outline>
		<contour>
			<point x="334" y="44" type="curve" smooth="yes"/>
			<point x="386" y="44" type="line" smooth="yes"/>
			<point x="558" y="44"/>
			<point x="676" y="118"/>
			<point x="676" y="268" type="curve" smooth="yes"/>
			<point x="676" y="420"/>
			<point x="558" y="492"/>
			<point x="386" y="492" type="curve" smooth="yes"/>
			<point x="334" y="492" type="line" smooth="yes"/>
			<point x="162" y="492"/>
			<point x="44" y="420"/>
			<point x="44" y="268" type="curve" smooth="yes"/>
			<point x="44" y="118"/>
			<point x="162" y="44"/>
		</contour>
		<contour>
			<point x="320" y="172" type="line" smooth="yes"/>
			<point x="254" y="172"/>
			<point x="210" y="194"/>
			<point x="210" y="268" type="curve" smooth="yes"/>
			<point x="210" y="342"/>
			<point x="254" y="364"/>
			<point x="320" y="364" type="curve" smooth="yes"/>
			<point x="400" y="364" type="line" smooth="yes"/>
			<point x="466" y="364"/>
			<point x="510" y="342"/>
			<point x="510" y="268" type="curve" smooth="yes"/>
			<point x="510" y="194"/>
			<point x="466" y="172"/>
			<point x="400" y="172" type="curve" smooth="yes"/>
		</contour>
		<contour>
			<point x="288" y="-18" type="line"/>
			<point x="432" y="-18" type="line"/>
			<point x="432" y="550" type="line"/>
			<point x="288" y="550" type="line"/>
		</contour>
	</outline>
</glyph>
<glyph name="Pi.sc" format="2">
	<advance width="626"/>
	<outline>
		<contour>
			<point x="72" y="0" type="line"/>
			<point x="244" y="0" type="line"/>
			<point x="244" y="390" type="line"/>
			<point x="382" y="390" type="line"/>
			<point x="382" y="0" type="line"/>
			<point x="554" y="0" type="line"/>
			<point x="554" y="532" type="line"/>
			<point x="72" y="532" type="line"/>
		</contour>
	</outline>
</glyph>
<glyph name="Ssigmoid" format="2">
	<advance width="564"/>
	<outline>
		<contour>
			<point x="272" y="-12" type="curve" smooth="yes"/>
			<point x="436" y="-12"/>
			<point x="532" y="80"/>
			<point x="532" y="196" type="curve" smooth="yes"/>
			<point x="532" y="286"/>
			<point x="486" y="342"/>
			<point x="405" y="374" type="curve" smooth="yes"/>
			<point x="326" y="405" type="line" smooth="yes"/>
			<point x="267" y="428"/>
			<point x="230" y="439"/>
			<point x="230" y="470" type="curve" smooth="yes"/>
			<point x="230" y="500"/>
			<point x="256" y="514"/>
			<point x="298" y="514" type="curve" smooth="yes"/>
			<point x="336" y="514"/>
			<point x="380" y="498"/>
			<point x="424" y="468" type="curve"/>
			<point x="514" y="580" type="line"/>
			<point x="455" y="634"/>
			<point x="376" y="662"/>
			<point x="298" y="662" type="curve" smooth="yes"/>
			<point x="156" y="662"/>
			<point x="56" y="571"/>
			<point x="56" y="460" type="curve" smooth="yes"/>
			<point x="56" y="386"/>
			<point x="90" y="336"/>
			<point x="140" y="308" type="curve"/>
			<point x="140" y="304" type="line"/>
			<point x="84" y="280"/>
			<point x="38" y="230"/>
			<point x="38" y="166" type="curve" smooth="yes"/>
			<point x="38" y="54"/>
			<point x="132" y="-12"/>
		</contour>
		<contour>
			<point x="288" y="136" type="curve" smooth="yes"/>
			<point x="224" y="136"/>
			<point x="190" y="160"/>
			<point x="190" y="202" type="curve" smooth="yes"/>
			<point x="190" y="226"/>
			<point x="204" y="250"/>
			<point x="232" y="260" type="curve"/>
			<point x="276" y="238"/>
			<point x="356" y="229"/>
			<point x="356" y="180" type="curve" smooth="yes"/>
			<point x="356" y="156"/>
			<point x="333" y="136"/>
		</contour>
	</outline>
</glyph>
<glyph name="THEY" format="2">
	<advance width="1104"/>
	<outline>
		<contour>
			<point x="424" y="-12" type="curve" smooth="yes"/>
			<point x="573" y="-12"/>
			<point x="638" y="92"/>
			<point x="638" y="280" type="curve" smooth="yes"/>
			<point x="638" y="429"/>
			<point x="598" y="546"/>
			<point x="582" y="650" type="curve"/>
			<point x="556" y="656"/>
			<point x="514" y="662"/>
			<point x="480" y="662" type="curve" smooth="yes"/>
			<point x="186" y="662"/>
			<point x="44" y="476"/>
			<point x="44" y="212" type="curve" smooth="yes"/>
			<point x="44" y="114"/>
			<point x="74" y="29"/>
			<point x="100" y="-8" type="curve"/>
			<point x="246" y="40" type="line"/>
			<point x="225" y="96"/>
			<point x="220" y="124"/>
			<point x="220" y="202" type="curve" smooth="yes"/>
			<point x="220" y="388"/>
			<point x="334" y="522"/>
			<point x="432" y="522" type="curve"/>
			<point x="445" y="458"/>
			<point x="462" y="385"/>
			<point x="462" y="238" type="curve" smooth="yes"/>
			<point x="462" y="144"/>
			<point x="452" y="118"/>
			<point x="424" y="118" type="curve" smooth="yes"/>
			<point x="408" y="118"/>
			<point x="396" y="128"/>
			<point x="396" y="148" type="curve" smooth="yes"/>
			<point x="396" y="206"/>
			<point x="452" y="240"/>
			<point x="614" y="268" type="curve" smooth="yes"/>
			<point x="684" y="280" type="line" smooth="yes"/>
			<point x="974" y="330"/>
			<point x="1064" y="378"/>
			<point x="1064" y="508" type="curve" smooth="yes"/>
			<point x="1064" y="604"/>
			<point x="1012" y="662"/>
			<point x="922" y="662" type="curve" smooth="yes"/>
			<point x="790" y="662"/>
			<point x="674" y="538"/>
			<point x="674" y="300" type="curve" smooth="yes"/>
			<point x="674" y="85"/>
			<point x="778" y="-12"/>
			<point x="934" y="-12" type="curve" smooth="yes"/>
			<point x="994" y="-12"/>
			<point x="1040" y="12"/>
			<point x="1074" y="48" type="curve"/>
			<point x="1008" y="158" type="line"/>
			<point x="986" y="142"/>
			<point x="972" y="136"/>
			<point x="950" y="136" type="curve" smooth="yes"/>
			<point x="892" y="136"/>
			<point x="850" y="190"/>
			<point x="850" y="322" type="curve" smooth="yes"/>
			<point x="850" y="474"/>
			<point x="882" y="532"/>
			<point x="914" y="532" type="curve" smooth="yes"/>
			<point x="932" y="532"/>
			<point x="940" y="522"/>
			<point x="940" y="506" type="curve" smooth="yes"/>
			<point x="940" y="462"/>
			<point x="904" y="446"/>
			<point x="692" y="410" type="curve" smooth="yes"/>
			<point x="622" y="398" type="line" smooth="yes"/>
			<point x="408" y="361"/>
			<point x="272" y="288"/>
			<point x="272" y="144" type="curve" smooth="yes"/>
			<point x="272" y="50"/>
			<point x="336" y="-12"/>
		</contour>
	</outline>
</glyph>
<glyph name="Tse.sc" format="2">
	<advance width="622"/>
	<outline>
		<contour>
			<point x="450" y="-172" type="line"/>
			<point x="598" y="-172" type="line"/>
			<point x="614" y="24" type="line"/>
			<point x="614" y="142" type="line"/>
			<point x="532" y="142" type="line"/>
			<point x="532" y="532" type="line"/>
			<point x="360" y="532" type="line"/>
			<point x="360" y="142" type="line"/>
			<point x="244" y="142" type="line"/>
			<point x="244" y="532" type="line"/>
			<point x="72" y="532" type="line"/>
			<point x="72" y="0" type="line"/>
			<point x="450" y="0" type="line"/>
		</contour>
	</outline>
</glyph>
<glyph name="W.sc" format="2">
	<advance width="730"/>
	<outline>
		<contour>
			<point x="106" y="0" type="line"/>
			<point x="310" y="0" type="line"/>
			<point x="344" y="177" type="line" smooth="yes"/>
			<point x="353" y="218"/>
			<point x="358" y="264"/>
			<point x="364" y="302" type="curve"/>
			<point x="368" y="302" type="line"/>
			<point x="372" y="264"/>
			<point x="378" y="218"/>
			<point x="386" y="177" type="curve" smooth="yes"/>
			<point x="422" y="0" type="line"/>
			<point x="630" y="0" type="line"/>
			<point x="720" y="531" type="line"/>
			<point x="564" y="531" type="line"/>
			<point x="538" y="316" type="line" smooth="yes"/>
			<point x="533" y="263"/>
			<point x="526" y="207"/>
			<point x="522" y="151" type="curve"/>
			<point x="518" y="151" type="line"/>
			<point x="508" y="207"/>
			<point x="496" y="264"/>
			<point x="486" y="316" type="curve" smooth="yes"/>
			<point x="440" y="531" type="line"/>
			<point x="303" y="531" type="line"/>
			<point x="255" y="316" type="line"/>
			<point x="246" y="262"/>
			<point x="234" y="206"/>
			<point x="224" y="151" type="curve"/>
			<point x="220" y="151" type="line"/>
			<point x="214" y="206"/>
			<point x="209" y="261"/>
			<point x="204" y="316" type="curve" smooth="yes"/>
			<point x="178" y="531" type="line"/>
			<point x="10" y="531" type="line"/>
		</contour>
	</outline>
	<anchor name="aboverightUC" x="650" y="562"/>
	<anchor name="aboveUC" x="366" y="562"/>
	<anchor name="belowLC" x="366" y="-22"/>
</glyph>
<glyph name="Ya.sc" format="2">
	<advance width="576"/>
	<outline>
		<contour>
			<point x="332" y="0" type="line"/>
			<point x="504" y="0" type="line"/>
			<point x="504" y="532" type="line"/>
			<point x="282" y="532" type="line" smooth="yes"/>
			<point x="158" y="532"/>
			<point x="50" y="492"/>
			<point x="50" y="352" type="curve" smooth="yes"/>
			<point x="50" y="226"/>
			<point x="158" y="162"/>
			<point x="280" y="162" type="curve" smooth="yes"/>
			<point x="332" y="162" type="line"/>
		</contour>
		<contour>
			<point x="290" y="278" type="line"/>
			<point x="238" y="278"/>
			<point x="212" y="302"/>
			<point x="212" y="340" type="curve" smooth="yes"/>
			<point x="212" y="382"/>
			<point x="240" y="398"/>
			<point x="292" y="398" type="curve" smooth="yes"/>
			<point x="332" y="398" type="line"/>
			<point x="332" y="278" type="line"/>
		</contour>
		<contour>
			<point x="8" y="0" type="line"/>
			<point x="198" y="0" type="line"/>
			<point x="326" y="205" type="line"/>
			<point x="190" y="252" type="line"/>
		</contour>
	</outline>
	<anchor name="aboveUC" x="310" y="562"/>
</glyph>
<glyph name="acutecmb.cap" format="2">
	<outline>
		<contour>
			<point x="-90" y="700" type="line"/>
			<point x="50" y="700" type="line"/>
			<point x="230" y="842" type="line"/>
			<point x="220" y="860" type="line"/>
			<point x="30" y="860" type="line"/>
		</contour>
	</outline>
	<anchor name="_aboveUC" x="0" y="672"/>
</glyph>
<glyph name="aogonek.f" format="2">
	<advance width="540"/>
	<outline>
		<contour>
			<point x="248" y="-220" type="curve" smooth="yes"/>
			<point x="286" y="-220"/>
			<point x="334" y="-206"/>
			<point x="364" y="-184" type="curve"/>
			<point x="330" y="-96" type="line"/>
			<point x="318" y="-102"/>
			<point x="302" y="-108"/>
			<point x="284" y="-108" type="curve" smooth="yes"/>
			<point x="266" y="-108"/>
			<point x="246" y="-98"/>
			<point x="246" y="-74" type="curve" smooth="yes"/>
			<point x="246" y="-54"/>
			<point x="254" y="-30"/>
			<point x="270" y="-6" type="curve" smooth="yes"/>
			<point x="284" y="14"/>
			<point x="306" y="36"/>
			<point x="332" y="52" type="curve"/>
			<point x="336" y="52" type="line"/>
			<point x="358" y="12"/>
			<point x="398" y="-12"/>
			<point x="464" y="-12" type="curve" smooth="yes"/>
			<point x="496" y="-12"/>
			<point x="520" y="-4"/>
			<point x="538" y="2" type="curve"/>
			<point x="518" y="128" type="line"/>
			<point x="512" y="126"/>
			<point x="510" y="126"/>
			<point x="506" y="126" type="curve" smooth="yes"/>
			<point x="492" y="126"/>
			<point x="482" y="136"/>
			<point x="482" y="170" type="curve"/>
			<point x="482" y="278" type="line" smooth="yes"/>
			<point x="482" y="442"/>
			<point x="404" y="512"/>
			<point x="274" y="512" type="curve" smooth="yes"/>
			<point x="196" y="512"/>
			<point x="124" y="488"/>
			<point x="54" y="446" type="curve"/>
			<point x="114" y="334" type="line"/>
			<point x="166" y="362"/>
			<point x="204" y="376"/>
			<point x="240" y="376" type="curve" smooth="yes"/>
			<point x="284" y="376"/>
			<point x="306" y="360"/>
			<point x="310" y="324" type="curve"/>
			<point x="118" y="304"/>
			<point x="38" y="246"/>
			<point x="38" y="142" type="curve" smooth="yes"/>
			<point x="38" y="60"/>
			<point x="94" y="-12"/>
			<point x="188" y="-12" type="curve"/>
			<point x="193" y="-12"/>
			<point x="199" y="-11"/>
			<point x="202" y="-10" type="curve"/>
			<point x="202" y="2" type="line"/>
			<point x="176" y="-16"/>
			<point x="122" y="-58"/>
			<point x="122" y="-118" type="curve" smooth="yes"/>
			<point x="122" y="-186"/>
			<point x="178" y="-220"/>
		</contour>
		<contour>
			<point x="248" y="120" type="curve" smooth="yes"/>
			<point x="218" y="120"/>
			<point x="202" y="133"/>
			<point x="202" y="156" type="curve" smooth="yes"/>
			<point x="202" y="184"/>
			<point x="228" y="210"/>
			<point x="310" y="222" type="curve"/>
			<point x="310" y="154" type="line"/>
			<point x="292" y="134"/>
			<point x="276" y="120"/>
		</contour>
	</outline>
	<anchor name="aboveLC" x="280" y="522"/>
</glyph>
<glyph name="asperacute.cap" format="2">
	<advance width="360"/>
	<outline>
		<contour>
			<point x="128" y="386" type="curve"/>
			<point x="150" y="452" type="line"/>
			<point x="126" y="461"/>
			<point x="110" y="475"/>
			<point x="110" y="514" type="curve" smooth="yes"/>
			<point x="110" y="551"/>
			<point x="130" y="576"/>
			<point x="188" y="582" type="curve"/>
			<point x="168" y="666" type="line"/>
			<point x="38" y="662"/>
			<point x="-2" y="603"/>
			<point x="-2" y="524" type="curve" smooth="yes"/>
			<point x="-2" y="434"/>
			<point x="56" y="394"/>
		</contour>
		<contour>
			<point x="210" y="400" type="line"/>
			<point x="310" y="400" type="line"/>
			<point x="370" y="642" type="line"/>
			<point x="360" y="660" type="line"/>
			<point x="230" y="660" type="line"/>
		</contour>
	</outline>
</glyph>
<glyph name="braceright.sc" format="2">
	<advance width="360"/>
	<outline>
		<contour>
			<point x="52" y="-102" type="line"/>
			<point x="122" y="-102" type="line" smooth="yes"/>
			<point x="214" y="-102"/>
			<point x="254" y="-69"/>
			<point x="254" y="34" type="curve" smooth="yes"/>
			<point x="254" y="84"/>
			<point x="244" y="104"/>
			<point x="244" y="146" type="curve" smooth="yes"/>
			<point x="244" y="175"/>
			<point x="266" y="206"/>
			<point x="330" y="208" type="curve"/>
			<point x="330" y="308" type="line"/>
			<point x="266" y="310"/>
			<point x="244" y="341"/>
			<point x="244" y="370" type="curve" smooth="yes"/>
			<point x="244" y="412"/>
			<point x="254" y="431"/>
			<point x="254" y="482" type="curve" smooth="yes"/>
			<point x="254" y="583"/>
			<point x="214" y="618"/>
			<point x="122" y="618" type="curve" smooth="yes"/>
			<point x="52" y="618" type="line"/>
			<point x="52" y="528" type="line"/>
			<point x="68" y="528" type="line" smooth="yes"/>
			<point x="105" y="528"/>
			<point x="116" y="521"/>
			<point x="116" y="476" type="curve" smooth="yes"/>
			<point x="116" y="440"/>
			<point x="112" y="408"/>
			<point x="112" y="370" type="curve" smooth="yes"/>
			<point x="112" y="297"/>
			<point x="139" y="271"/>
			<point x="192" y="260" type="curve"/>
			<point x="192" y="256" type="line"/>
			<point x="139" y="245"/>
			<point x="112" y="219"/>
			<point x="112" y="146" type="curve" smooth="yes"/>
			<point x="112" y="108"/>
			<point x="116" y="76"/>
			<point x="116" y="40" type="curve" smooth="yes"/>
			<point x="116" y="-5"/>
			<point x="105" y="-12"/>
			<point x="68" y="-12" type="curve"/>
			<point x="52" y="-12" type="line"/>
		</contour>
	</outline>
</glyph>
<glyph name="brevecmb.cap" format="2">
	<outline>
		<contour>
			<point x="0" y="696" type="curve" smooth="yes"/>
			<point x="102" y="696"/>
			<point x="160" y="740"/>
			<point x="170" y="836" type="curve"/>
			<point x="78" y="852" type="line"/>
			<point x="69" y="813"/>
			<point x="40" y="794"/>
			<point x="0" y="794" type="curve" smooth="yes"/>
			<point x="-40" y="794"/>
			<point x="-69" y="813"/>
			<point x="-78" y="852" type="curve"/>
			<point x="-170" y="836" type="line"/>
			<point x="-160" y="740"/>
			<point x="-102" y="696"/>
		</contour>
	</outline>
	<anchor name="_aboveUC" x="0" y="672"/>
</glyph>
<glyph name="brevecmb.cyr" format="2">
	<outline>
		<contour>
			<point x="0" y="568" type="curve" smooth="yes"/>
			<point x="116" y="568"/>
			<point x="176" y="628"/>
			<point x="178" y="736" type="curve"/>
			<point x="46" y="736" type="line"/>
			<point x="44" y="681"/>
			<point x="34" y="658"/>
			<point x="0" y="658" type="curve" smooth="yes"/>
			<point x="-34" y="658"/>
			<point x="-44" y="681"/>
			<point x="-46" y="736" type="curve"/>
			<point x="-178" y="736" type="line"/>
			<point x="-176" y="628"/>
			<point x="-116" y="568"/>
		</contour>
	</outline>
	<anchor name="_aboveLC" x="0" y="522"/>
</glyph>
<glyph name="caroncomma.cap" format="2">
	<outline>
		<contour>
			<point x="-80" y="700" type="line"/>
			<point x="80" y="700" type="line"/>
			<point x="200" y="830" type="line"/>
			<point x="80" y="830" type="line"/>
			<point x="2" y="780" type="line"/>
			<point x="-2" y="780" type="line"/>
			<point x="-80" y="830" type="line"/>
			<point x="-200" y="830" type="line"/>
		</contour>
		<component base="commaabovecmb.cap" xScale="0.9" yScale="0.9" yOffset="190"/>
	</outline>
	<anchor name="_aboveUC" x="0" y="672"/>
</glyph>
<glyph name="caroncomma" format="2">
	<outline>
		<contour>
			<point x="-80" y="570" type="line"/>
			<point x="80" y="570" type="line"/>
			<point x="200" y="720" type="line"/>
			<point x="80" y="720" type="line"/>
			<point x="2" y="664" type="line"/>
			<point x="-2" y="664" type="line"/>
			<point x="-80" y="720" type="line"/>
			<point x="-200" y="720" type="line"/>
		</contour>
		<component base="commaabovecmb.cap" xScale="0.9" yScale="0.9" yOffset="80"/>
	</outline>
	<anchor name="_aboveLC" x="0" y="522"/>
</glyph>
<glyph name="carondotaccent" format="2">
	<outline>
		<contour>
			<point x="-80" y="570" type="line"/>
			<point x="80" y="570" type="line"/>
			<point x="200" y="720" type="line"/>
			<point x="80" y="720" type="line"/>
			<point x="2" y="664" type="line"/>
			<point x="-2" y="664" type="line"/>
			<point x="-80" y="720" type="line"/>
			<point x="-200" y="720" type="line"/>
		</contour>
		<contour>
			<point x="0" y="722" type="curve" smooth="yes"/>
			<point x="46" y="722"/>
			<point x="82" y="756"/>
			<point x="82" y="798" type="curve" smooth="yes"/>
			<point x="82" y="841"/>
			<point x="46" y="874"/>
			<point x="0" y="874" type="curve" smooth="yes"/>
			<point x="-46" y="874"/>
			<point x="-82" y="841"/>
			<point x="-82" y="798" type="curve" smooth="yes"/>
			<point x="-82" y="756"/>
			<point x="-46" y="722"/>
		</contour>
	</outline>
	<anchor name="_aboveLC" x="0" y="522"/>
</glyph>
<glyph name="circumflexcaron" format="2">
	<outline>
		<contour>
			<point x="-190" y="570" type="line"/>
			<point x="-70" y="570" type="line"/>
			<point x="-2" y="616" type="line"/>
			<point x="2" y="616" type="line"/>
			<point x="70" y="570" type="line"/>
			<point x="190" y="570" type="line"/>
			<point x="80" y="694" type="line"/>
			<point x="-80" y="694" type="line"/>
		</contour>
		<contour>
			<point x="-80" y="730" type="line"/>
			<point x="80" y="730" type="line"/>
			<point x="190" y="850" type="line"/>
			<point x="70" y="850" type="line"/>
			<point x="2" y="806" type="line"/>
			<point x="-2" y="806" type="line"/>
			<point x="-70" y="850" type="line"/>
			<point x="-190" y="850" type="line"/>
		</contour>
	</outline>
	<anchor name="_aboveLC" x="0" y="522"/>
</glyph>
<glyph name="circumflexgrave.cap" format="2">
	<outline>
		<contour>
			<point x="-200" y="700" type="line"/>
			<point x="-80" y="700" type="line"/>
			<point x="-2" y="760" type="line"/>
			<point x="2" y="760" type="line"/>
			<point x="80" y="700" type="line"/>
			<point x="200" y="700" type="line"/>
			<point x="80" y="840" type="line"/>
			<point x="-80" y="840" type="line"/>
		</contour>
		<contour>
			<point x="-220" y="790" type="line"/>
			<point x="-130" y="790" type="line"/>
			<point x="-190" y="920" type="line"/>
			<point x="-320" y="920" type="line"/>
			<point x="-330" y="902" type="line"/>
		</contour>
	</outline>
	<anchor name="_aboveUC" x="0" y="672"/>
</glyph>
<glyph name="commaturnedabovecmb.cap" format="2">
	<outline>
		<contour>
			<point x="6" y="692" type="curve" smooth="yes"/>
			<point x="62" y="692"/>
			<point x="94" y="716"/>
			<point x="94" y="756" type="curve" smooth="yes"/>
			<point x="94" y="800"/>
			<point x="60" y="816"/>
			<point x="20" y="816" type="curve" smooth="yes"/>
			<point x="8" y="816"/>
			<point x="0" y="814"/>
			<point x="-6" y="812" type="curve"/>
			<point x="2" y="830"/>
			<point x="30" y="842"/>
			<point x="70" y="846" type="curve"/>
			<point x="48" y="908" type="line"/>
			<point x="-48" y="900"/>
			<point x="-94" y="846"/>
			<point x="-94" y="790" type="curve" smooth="yes"/>
			<point x="-94" y="730"/>
			<point x="-58" y="692"/>
		</contour>
	</outline>
	<anchor name="_aboveUC" x="0" y="672"/>
</glyph>
<glyph name="eight.dnom" format="2">
	<advance width="380"/>
	<outline>
		<contour>
			<point x="190" y="-12" type="curve" smooth="yes"/>
			<point x="280" y="-12"/>
			<point x="344" y="38"/>
			<point x="344" y="100" type="curve" smooth="yes"/>
			<point x="344" y="150"/>
			<point x="312" y="186"/>
			<point x="274" y="206" type="curve"/>
			<point x="274" y="210" type="line"/>
			<point x="308" y="228"/>
			<point x="332" y="260"/>
			<point x="332" y="294" type="curve" smooth="yes"/>
			<point x="332" y="362"/>
			<point x="270" y="402"/>
			<point x="190" y="402" type="curve" smooth="yes"/>
			<point x="112" y="402"/>
			<point x="48" y="362"/>
			<point x="48" y="294" type="curve" smooth="yes"/>
			<point x="48" y="254"/>
			<point x="72" y="226"/>
			<point x="106" y="202" type="curve"/>
			<point x="106" y="198" type="line"/>
			<point x="72" y="178"/>
			<point x="36" y="143"/>
			<point x="36" y="100" type="curve" smooth="yes"/>
			<point x="36" y="38"/>
			<point x="100" y="-12"/>
		</contour>
		<contour>
			<point x="204" y="244" type="curve"/>
			<point x="178" y="256"/>
			<point x="158" y="266"/>
			<point x="158" y="290" type="curve" smooth="yes"/>
			<point x="158" y="306"/>
			<point x="172" y="318"/>
			<point x="189" y="318" type="curve" smooth="yes"/>
			<point x="208" y="318"/>
			<point x="222" y="306"/>
			<point x="222" y="284" type="curve" smooth="yes"/>
			<point x="222" y="272"/>
			<point x="216" y="258"/>
		</contour>
		<contour>
			<point x="190" y="70" type="curve" smooth="yes"/>
			<point x="166" y="70"/>
			<point x="148" y="88"/>
			<point x="148" y="112" type="curve" smooth="yes"/>
			<point x="148" y="130"/>
			<point x="158" y="148"/>
			<point x="174" y="160" type="curve"/>
			<point x="208" y="142"/>
			<point x="232" y="134"/>
			<point x="232" y="110" type="curve" smooth="yes"/>
			<point x="232" y="88"/>
			<point x="214" y="70"/>
		</contour>
	</outline>
</glyph>
<glyph name="esh.sups" format="2">
	<advance width="198"/>
	<outline>
		<contour>
			<point x="28" y="236" type="curve" smooth="yes"/>
			<point x="130" y="236"/>
			<point x="160" y="306"/>
			<point x="160" y="380" type="curve" smooth="yes"/>
			<point x="160" y="704" type="line" smooth="yes"/>
			<point x="160" y="739"/>
			<point x="174" y="752"/>
			<point x="194" y="752" type="curve" smooth="yes"/>
			<point x="206" y="752"/>
			<point x="218" y="750"/>
			<point x="226" y="748" type="curve"/>
			<point x="248" y="832" type="line"/>
			<point x="232" y="838"/>
			<point x="206" y="844"/>
			<point x="176" y="844" type="curve" smooth="yes"/>
			<point x="74" y="844"/>
			<point x="40" y="774"/>
			<point x="40" y="700" type="curve" smooth="yes"/>
			<point x="40" y="376" type="line" smooth="yes"/>
			<point x="40" y="340"/>
			<point x="33" y="328"/>
			<point x="10" y="328" type="curve" smooth="yes"/>
			<point x="-1" y="328"/>
			<point x="-10" y="330"/>
			<point x="-16" y="332" type="curve"/>
			<point x="-36" y="244" type="line"/>
			<point x="-22" y="240"/>
			<point x="-4" y="236"/>
		</contour>
	</outline>
</glyph>
<glyph name="et" format="2">
	<advance width="740"/>
	<outline>
		<contour>
			<point x="262" y="-12" type="curve" smooth="yes"/>
			<point x="387" y="-12"/>
			<point x="444" y="49"/>
			<point x="476" y="138" type="curve"/>
			<point x="374" y="270" type="line"/>
			<point x="362" y="258"/>
			<point x="352" y="222"/>
			<point x="346" y="196" type="curve" smooth="yes"/>
			<point x="333" y="137"/>
			<point x="312" y="120"/>
			<point x="280" y="120" type="curve" smooth="yes"/>
			<point x="228" y="120"/>
			<point x="198" y="144"/>
			<point x="198" y="292" type="curve" smooth="yes"/>
			<point x="198" y="482"/>
			<point x="232" y="528"/>
			<point x="274" y="528" type="curve" smooth="yes"/>
			<point x="299" y="528"/>
			<point x="314" y="503"/>
			<point x="314" y="482" type="curve" smooth="yes"/>
			<point x="314" y="443"/>
			<point x="277" y="369"/>
			<point x="196" y="340" type="curve"/>
			<point x="196" y="230" type="line"/>
			<point x="368" y="270"/>
			<point x="450" y="388"/>
			<point x="450" y="500" type="curve" smooth="yes"/>
			<point x="450" y="582"/>
			<point x="378" y="660"/>
			<point x="280" y="660" type="curve" smooth="yes"/>
			<point x="121" y="660"/>
			<point x="32" y="524"/>
			<point x="32" y="292" type="curve" smooth="yes"/>
			<point x="32" y="95"/>
			<point x="102" y="-12"/>
		</contour>
		<component base="tinsular" xOffset="306"/>
	</outline>
</glyph>
<glyph name="four.cap" format="2">
	<advance width="540"/>
	<outline>
		<contour>
			<point x="290" y="0" type="line"/>
			<point x="450" y="0" type="line"/>
			<point x="450" y="650" type="line"/>
			<point x="236" y="650" type="line"/>
			<point x="20" y="278" type="line"/>
			<point x="20" y="158" type="line"/>
			<point x="518" y="158" type="line"/>
			<point x="518" y="288" type="line"/>
			<point x="182" y="288" type="line"/>
			<point x="240" y="396" type="line"/>
			<point x="258" y="434"/>
			<point x="276" y="472"/>
			<point x="292" y="510" type="curve"/>
			<point x="296" y="510" type="line"/>
			<point x="294" y="467"/>
			<point x="290" y="403"/>
			<point x="290" y="360" type="curve" smooth="yes"/>
		</contour>
	</outline>
</glyph>
<glyph name="g.supa" format="2">
	<advance width="398"/>
	<outline>
		<contour>
			<point x="176" y="233" type="curve" smooth="yes"/>
			<point x="291" y="233"/>
			<point x="356" y="283"/>
			<point x="356" y="380" type="curve" smooth="yes"/>
			<point x="356" y="699" type="line"/>
			<point x="261" y="699" type="line"/>
			<point x="252" y="668" type="line"/>
			<point x="250" y="668" type="line"/>
			<point x="226" y="696"/>
			<point x="199" y="707"/>
			<point x="167" y="707" type="curve" smooth="yes"/>
			<point x="99" y="707"/>
			<point x="28" y="643"/>
			<point x="28" y="543" type="curve" smooth="yes"/>
			<point x="28" y="451"/>
			<point x="82" y="385"/>
			<point x="165" y="385" type="curve" smooth="yes"/>
			<point x="192" y="385"/>
			<point x="219" y="395"/>
			<point x="240" y="413" type="curve"/>
			<point x="237" y="384" type="line"/>
			<point x="237" y="382" type="line" smooth="yes"/>
			<point x="237" y="354"/>
			<point x="219" y="324"/>
			<point x="176" y="324" type="curve" smooth="yes"/>
			<point x="151" y="324"/>
			<point x="117" y="331"/>
			<point x="87" y="346" type="curve"/>
			<point x="48" y="270" type="line"/>
			<point x="88" y="245"/>
			<point x="141" y="233"/>
		</contour>
		<contour>
			<point x="197" y="479" type="curve" smooth="yes"/>
			<point x="168" y="479"/>
			<point x="149" y="499"/>
			<point x="149" y="544" type="curve" smooth="yes"/>
			<point x="149" y="592"/>
			<point x="170" y="611"/>
			<point x="194" y="611" type="curve" smooth="yes"/>
			<point x="208" y="611"/>
			<point x="225" y="607"/>
			<point x="237" y="596" type="curve"/>
			<point x="237" y="503" type="line"/>
			<point x="225" y="484"/>
			<point x="214" y="479"/>
		</contour>
	</outline>
</glyph>
<glyph name="istroke.x" format="2">
	<advance width="348"/>
	<outline>
		<contour>
			<point x="22" y="198" type="line"/>
			<point x="326" y="198" type="line"/>
			<point x="326" y="310" type="line"/>
			<point x="88" y="310" type="line"/>
			<point x="22" y="304" type="line"/>
		</contour>
		<component base="dotlessi" xOffset="30"/>
	</outline>
	<anchor name="aboveLC" x="174" y="522"/>
	<anchor name="belowLC" x="174" y="-22"/>
	<anchor name="ogonekLC" x="174" y="0"/>
</glyph>
<glyph name="nine.tnum" format="2">
	<advance width="540"/>
	<outline>
		<contour>
			<point x="222" y="-92" type="curve" smooth="yes"/>
			<point x="418" y="-92"/>
			<point x="506" y="64"/>
			<point x="506" y="260" type="curve" smooth="yes"/>
			<point x="506" y="462"/>
			<point x="404" y="592"/>
			<point x="244" y="592" type="curve" smooth="yes"/>
			<point x="123" y="592"/>
			<point x="24" y="508"/>
			<point x="24" y="372" type="curve" smooth="yes"/>
			<point x="24" y="234"/>
			<point x="98" y="156"/>
			<point x="216" y="156" type="curve" smooth="yes"/>
			<point x="256" y="156"/>
			<point x="320" y="182"/>
			<point x="352" y="228" type="curve"/>
			<point x="344" y="336" type="line"/>
			<point x="318" y="292"/>
			<point x="284" y="276"/>
			<point x="250" y="276" type="curve" smooth="yes"/>
			<point x="214" y="276"/>
			<point x="180" y="296"/>
			<point x="180" y="372" type="curve" smooth="yes"/>
			<point x="180" y="438"/>
			<point x="212" y="464"/>
			<point x="248" y="464" type="curve" smooth="yes"/>
			<point x="292" y="464"/>
			<point x="346" y="436"/>
			<point x="346" y="260" type="curve" smooth="yes"/>
			<point x="346" y="98"/>
			<point x="298" y="46"/>
			<point x="208" y="46" type="curve" smooth="yes"/>
			<point x="168" y="46"/>
			<point x="140" y="58"/>
			<point x="108" y="78" type="curve"/>
			<point x="48" y="-40" type="line"/>
			<point x="106" y="-78"/>
			<point x="150" y="-92"/>
		</contour>
	</outline>
</glyph>
<glyph name="one.tnum" format="2">
	<advance width="540"/>
	<outline>
		<contour>
			<point x="66" y="0" type="line"/>
			<point x="488" y="0" type="line"/>
			<point x="488" y="138" type="line"/>
			<point x="374" y="138" type="line"/>
			<point x="374" y="580" type="line"/>
			<point x="248" y="580" type="line"/>
			<point x="200" y="550"/>
			<point x="154" y="532"/>
			<point x="82" y="518" type="curve"/>
			<point x="82" y="412" type="line"/>
			<point x="202" y="412" type="line"/>
			<point x="202" y="138" type="line"/>
			<point x="66" y="138" type="line"/>
		</contour>
	</outline>
</glyph>
<glyph name="tildecmb.cap" format="2">
	<outline>
		<contour>
			<point x="70" y="686" type="curve" smooth="yes"/>
			<point x="143" y="686"/>
			<point x="200" y="728"/>
			<point x="206" y="838" type="curve"/>
			<point x="96" y="846" type="line"/>
			<point x="92" y="812"/>
			<point x="80" y="804"/>
			<point x="64" y="804" type="curve" smooth="yes"/>
			<point x="36" y="804"/>
			<point x="0" y="856"/>
			<point x="-70" y="856" type="curve" smooth="yes"/>
			<point x="-143" y="856"/>
			<point x="-200" y="814"/>
			<point x="-206" y="704" type="curve"/>
			<point x="-96" y="696" type="line"/>
			<point x="-92" y="730"/>
			<point x="-80" y="738"/>
			<point x="-64" y="738" type="curve" smooth="yes"/>
			<point x="-36" y="738"/>
			<point x="0" y="686"/>
		</contour>
	</outline>
	<anchor name="_aboveUC" x="0" y="672"/>
</glyph>
<glyph name="two.tnum" format="2">
	<advance width="540"/>
	<outline>
		<contour>
			<point x="36" y="0" type="line"/>
			<point x="496" y="0" type="line"/>
			<point x="496" y="144" type="line"/>
			<point x="386" y="144" type="line" smooth="yes"/>
			<point x="358" y="144"/>
			<point x="312" y="140"/>
			<point x="280" y="136" type="curve"/>
			<point x="382" y="224"/>
			<point x="460" y="300"/>
			<point x="460" y="390" type="curve" smooth="yes"/>
			<point x="460" y="510"/>
			<point x="372" y="592"/>
			<point x="248" y="592" type="curve" smooth="yes"/>
			<point x="156" y="592"/>
			<point x="96" y="558"/>
			<point x="32" y="486" type="curve"/>
			<point x="120" y="398" type="line"/>
			<point x="150" y="428"/>
			<point x="182" y="458"/>
			<point x="226" y="458" type="curve" smooth="yes"/>
			<point x="266" y="458"/>
			<point x="296" y="431"/>
			<point x="296" y="382" type="curve" smooth="yes"/>
			<point x="296" y="306"/>
			<point x="184" y="218"/>
			<point x="36" y="106" type="curve"/>
		</contour>
	</outline>
</glyph>
<glyph name="varia.cap" format="2">
	<advance width="160"/>
	<outline>
		<contour>
			<point x="50" y="400" type="line"/>
			<point x="160" y="400" type="line"/>
			<point x="140" y="660" type="line"/>
			<point x="0" y="660" type="line"/>
			<point x="-10" y="642" type="line"/>
		</contour>
	</outline>
</glyph>
<glyph name="zhe.b" format="2">
	<advance width="792"/>
	<outline>
		<contour>
			<point x="4" y="0" type="line"/>
			<point x="188" y="0" type="line"/>
			<point x="272" y="190" type="line"/>
			<point x="320" y="190" type="line"/>
			<point x="320" y="0" type="line"/>
			<point x="472" y="0" type="line"/>
			<point x="472" y="190" type="line"/>
			<point x="520" y="190" type="line"/>
			<point x="604" y="0" type="line"/>
			<point x="788" y="0" type="line"/>
			<point x="643" y="256" type="line"/>
			<point x="666" y="306" type="line" smooth="yes"/>
			<point x="682" y="340"/>
			<point x="696" y="350"/>
			<point x="716" y="350" type="curve" smooth="yes"/>
			<point x="723" y="350"/>
			<point x="730" y="348"/>
			<point x="736" y="346" type="curve"/>
			<point x="762" y="504" type="line"/>
			<point x="748" y="510"/>
			<point x="734" y="512"/>
			<point x="718" y="512" type="curve" smooth="yes"/>
			<point x="644" y="512"/>
			<point x="598" y="484"/>
			<point x="560" y="408" type="curve" smooth="yes"/>
			<point x="518" y="324" type="line"/>
			<point x="472" y="324" type="line"/>
			<point x="472" y="696" type="line"/>
			<point x="320" y="696" type="line"/>
			<point x="320" y="324" type="line"/>
			<point x="274" y="324" type="line"/>
			<point x="232" y="408" type="line" smooth="yes"/>
			<point x="194" y="484"/>
			<point x="148" y="512"/>
			<point x="74" y="512" type="curve" smooth="yes"/>
			<point x="58" y="512"/>
			<point x="44" y="510"/>
			<point x="30" y="504" type="curve"/>
			<point x="56" y="346" type="line"/>
			<point x="62" y="348"/>
			<point x="69" y="350"/>
			<point x="76" y="350" type="curve" smooth="yes"/>
			<point x="96" y="350"/>
			<point x="110" y="340"/>
			<point x="126" y="306" type="curve" smooth="yes"/>
			<point x="149" y="256" type="line"/>
		</contour>
	</outline>
</glyph>
